<?xml version="1.0" encoding="utf-8"?>
<!-- Generator: Adobe Illustrator 26.0.0, SVG Export Plug-In . SVG Version: 6.00 Build 0)  -->
<svg version="1.1" id="Layer_1" xmlns="http://www.w3.org/2000/svg" xmlns:xlink="http://www.w3.org/1999/xlink" x="0px" y="0px"
	 viewBox="0 0 100 100" style="enable-background:new 0 0 100 100;" xml:space="preserve">
<style type="text/css">
	.st0{fill:#4D77E5;}
	.st1{fill:#77C15F;}
	.st2{fill:#C83EE5;}
	.st3{fill:#D3E05F;}
	.st4{fill:#7F4D9E;}
	.st5{fill:#9A17E5;}
	.st6{fill:none;stroke:#A765A8;stroke-miterlimit:10;}
	.st7{fill:#C83EE5;stroke:#C83EE5;stroke-miterlimit:10;}
	.st8{fill:#F8F088;stroke:#F8F088;stroke-miterlimit:10;}
	.st9{fill:none;stroke:#F8F088;stroke-miterlimit:10;}
	.st10{fill:#EFE945;}
	.st11{fill:#EFE02B;}
</style>
<g id="tierra">
	<circle id="blue" class="st0" cx="66.48" cy="27.17" r="17.29"/>
	<path id="green_00000145736492154182663610000010631723316043634355_" class="st1" d="M74.66,13.98c-0.29,0.47-1.01,0.38-1.47,0.08
		c-0.46-0.31-0.81-0.78-1.33-0.97c-0.91-0.33-1.91,0.38-2.31,1.26s-0.36,1.88-0.43,2.85s-0.29,2-1.02,2.63
		c-0.71,0.61-1.71,0.68-2.64,0.79c-1.46,0.19-2.92,0.58-4.13,1.43c-1.21,0.84-2.13,2.18-2.2,3.65c-0.03,0.62,0.1,1.27,0.51,1.74
		c0.52,0.6,1.36,0.78,2.14,0.92c1.55,0.29,3.09,0.57,4.64,0.86c0.63,0.12,1.27,0.23,1.85,0.49c1.39,0.61,2.37,2.05,2.44,3.57
		c0.03,0.62-0.08,1.26,0.12,1.84c0.29,0.83,1.14,1.31,1.91,1.73c0.63,0.33,1.34,0.68,2.03,0.49c0.48-0.13,0.85-0.5,1.17-0.87
		c1.07-1.22,1.95-2.61,2.57-4.11c0.27-0.64,0.48-1.41,0.12-2.01c-0.45-0.75-1.49-0.8-2.34-0.99c-2.14-0.49-3.78-2.6-3.73-4.79
		s1.78-4.23,3.94-4.62c0.29-0.05,0.61-0.09,0.83-0.29c0.26-0.23,0.31-0.61,0.43-0.94c0.41-1.14,1.92-1.72,2.98-1.15
		c-0.56-0.3-1.25-2.12-1.75-2.7c-0.74-0.88-1.61-1.66-2.56-2.3c-0.36-0.24-2.3-1.61-2.68-1.27C73.31,11.68,74.58,13.42,74.66,13.98z
		"/>
	<path id="green_00000011748690689242470520000016255745830094796936_" class="st1" d="M52.99,30.78c0.12-0.24,0.28-0.45,0.37-0.7
		c0.21-0.61-0.07-1.27-0.3-1.87s-0.39-1.34,0.01-1.85c0.15-0.19,0.36-0.32,0.57-0.43c0.46-0.24,0.97-0.39,1.48-0.46
		c0.34-0.04,0.71-0.04,0.99,0.17c0.24,0.18,0.35,0.48,0.45,0.76c0.14,0.38,0.27,0.78,0.21,1.18c-0.08,0.49-0.46,0.87-0.76,1.27
		c-0.3,0.4-0.52,0.95-0.28,1.39c0.12,0.21,0.33,0.36,0.48,0.55c0.48,0.63,0.14,1.56-0.36,2.18c-0.37,0.46-0.86,0.88-1.44,0.96
		C52.72,34.18,52.47,31.86,52.99,30.78z"/>
	<path id="green_00000109715543540731786260000001004033139006357940_" class="st1" d="M60.97,40.13c0.03,0.24,0.07,0.49,0.24,0.66
		c0.13,0.12,0.32,0.17,0.5,0.21c1.08,0.23,2.15,0.46,3.23,0.68c0.39,0.08,0.81,0.16,1.19,0.02c0.28-0.11,0.49-0.33,0.69-0.55
		c0.4-0.45,0.78-0.94,0.94-1.52C68.57,36.81,60.34,34.79,60.97,40.13z"/>
	<path id="green_00000040555418682389649610000003840940096747434940_" class="st1" d="M79.39,23.74c0.09,0.38,0.42,0.64,0.66,0.95
		c0.46,0.6,0.54,1.41,0.61,2.16c0.03,0.31,0.05,0.64-0.07,0.93c-0.09,0.21-0.24,0.37-0.36,0.56c-0.29,0.48-0.32,1.1-0.08,1.61
		c0.25,0.5,0.76,0.86,1.32,0.92c0.26,0.03,0.54-0.01,0.73-0.19c0.14-0.13,0.22-0.31,0.29-0.49c0.75-2.04,0.74-4.45-0.12-6.45
		c-0.27-0.63-0.93-1.98-1.78-1.99C79.78,21.75,79.22,23.01,79.39,23.74z"/>
	<path id="green_00000013905377098928651070000005429444096326734008_" class="st1" d="M61.55,42.32c-0.4-0.38-0.83-0.76-1.34-0.96
		c-0.43-0.16-0.9-0.19-1.37-0.21c-0.96-0.05-1.92-0.09-2.88-0.14c-0.07,0-0.13-0.01-0.19,0.03c-0.21,0.11-0.03,0.44,0.16,0.58
		c0.72,0.53,1.5,0.98,2.27,1.43c0.81,0.47,1.67,0.95,2.6,0.98c0.63,0.02,1.25-0.17,1.88-0.12c0.38,0.03,0.68,0.17,0.89,0.48
		C63.02,43.63,62.25,42.98,61.55,42.32z"/>
	<path id="green" class="st1" d="M55.91,13.36c1.05-0.61,2.13-1.19,3.2-1.76c0.45-0.24,1.02-0.48,1.45-0.2
		c0.49,0.32,0.41,1.09,0.04,1.55c-0.36,0.46-0.91,0.73-1.33,1.13c-0.33,0.32-0.58,0.71-0.84,1.09c-0.8,1.2-2.98,5.42-4.66,3.5
		C52.03,16.64,54.24,14.33,55.91,13.36z"/>
</g>
<g id="jupiter">
	<path id="purple_00000129182574301644736390000013475889848044055743_" class="st2" d="M39.5,64.46c-0.01,0.06-0.01,0.13-0.01,0.19
		c-2.93-1.82-7.21,0.51-10.31-1.14c-0.57-0.3-1.1-0.78-1.23-1.41c-0.21-1.03,0.65-2.25-0.01-3.07c-0.55-0.67-1.62-0.4-2.43-0.06
		c-0.79,0.33-1.59,0.66-2.38,0.99c-1.03,0.43-2.38,0.8-3.14-0.03c-0.28-0.31-0.4-0.72-0.48-1.13c-0.4-1.98-0.07-3.99,1.42-5.2
		l2.03-1.08c0.85-0.34,1.72-0.57,2.6-0.71c-1.22,1.25-2.55,2.42-2.92,4.08c-0.07,0.33-0.1,0.68,0.02,0.99
		c0.27,0.69,1.17,0.92,1.89,0.75c0.72-0.17,1.34-0.63,2-0.95c0.67-0.33,1.49-0.52,2.13-0.14c0.86,0.51,0.93,1.71,0.83,2.69
		c-0.1,0.99-0.23,2.13,0.44,2.86c0.58,0.63,1.52,0.7,2.38,0.73c1.2,0.04,2.4,0.09,3.6,0.13C37.24,63.01,38.74,63.45,39.5,64.46z"/>
	<path id="yellow" class="st3" d="M22.97,52.54l-2.03,1.08c0.19-0.15,0.39-0.29,0.61-0.41C22.02,52.95,22.49,52.72,22.97,52.54z"/>
	<path id="purple_00000049926832417512785670000017810558565982073737_" class="st2" d="M38.47,68.74c-0.28,0.62-0.61,1.22-0.99,1.8
		c-1.06-0.58-2.49-0.53-3.74-0.31c-1.63,0.29-3.41,0.74-4.86-0.06c-1.74-0.94-2.34-3.34-4.14-4.17c-2.26-1.05-5.16,0.92-7.32-0.32
		c-0.66-0.38-1.14-1.01-1.52-1.66c-0.2-0.35-0.39-0.71-0.55-1.08c0,0,0,0,0,0c0.13-1.76,0.64-3.48,1.5-5.03
		c0,0.3,0.02,0.6,0.03,0.89c0.13,2.12,0.88,4.57,2.89,5.27c1.05,0.36,2.2,0.15,3.27-0.11c1.08-0.27,2.17-0.6,3.27-0.45
		c1.1,0.15,2.21,0.92,2.33,2.02c0.06,0.53-0.12,1.08,0,1.6c0.2,0.94,1.27,1.46,2.23,1.46c0.96,0,1.88-0.37,2.82-0.55
		C35.29,67.72,37.01,67.97,38.47,68.74z"/>
	<path id="Dark_x5F_purple_00000030471932140897467860000012097313637233530775_" class="st4" d="M27.71,75.89
		c-3.45,0.08-6.83-1.32-9.22-3.93c0.59-0.06,1.18-0.1,1.78-0.1c0.55,0,1.12,0.02,1.61,0.26c0.91,0.42,1.46,1.46,2.42,1.72
		c0.55,0.15,1.17,0.01,1.67,0.28c0.23,0.12,0.41,0.32,0.59,0.52C26.95,75.05,27.33,75.47,27.71,75.89z"/>
	<path id="Dark_x5F_purple_00000124162496205183718940000015168351749492390305_" class="st5" d="M37.47,70.53
		c-1.04,1.55-2.45,2.88-4.19,3.85c-1.3,0.72-2.67,1.17-4.05,1.38c-0.91-0.72-1.64-1.74-2.5-2.56c-1.32-1.27-3.01-2.07-4.67-2.85
		c-1.03-0.49-2.18-0.98-3.28-0.68c-0.42,0.12-0.81,0.35-1.24,0.37c-0.18,0.01-0.35-0.01-0.52-0.06c-0.06-0.11-0.13-0.22-0.19-0.33
		c-1.18-2.13-1.65-4.46-1.49-6.72c0.16,0.37,0.34,0.73,0.55,1.08c0.39,0.66,0.86,1.29,1.52,1.66c2.16,1.24,5.07-0.73,7.32,0.32
		c1.8,0.84,2.4,3.23,4.14,4.17c1.45,0.79,3.23,0.35,4.86,0.06C34.98,70,36.42,69.96,37.47,70.53z"/>
	<path id="Dark_x5F_purple_00000066491806968666489170000016039120860517925049_" class="st5" d="M39.49,64.66
		c-0.1,1.41-0.45,2.79-1.02,4.08c-1.45-0.76-3.17-1.02-4.78-0.71c-0.94,0.18-1.86,0.55-2.82,0.55c-0.96,0-2.03-0.52-2.23-1.46
		c-0.11-0.52,0.06-1.07,0-1.6c-0.12-1.1-1.23-1.88-2.33-2.02c-1.1-0.14-2.2,0.18-3.27,0.45c-1.07,0.27-2.23,0.48-3.27,0.11
		c-2.01-0.7-2.76-3.14-2.89-5.27c-0.02-0.3-0.03-0.6-0.03-0.89c0.88-1.59,2.13-2.99,3.7-4.08l0.39-0.21
		c-1.49,1.2-1.82,3.21-1.42,5.2c0.08,0.41,0.2,0.82,0.48,1.13c0.75,0.83,2.1,0.46,3.14,0.03c0.79-0.33,1.59-0.66,2.38-0.99
		c0.8-0.33,1.88-0.61,2.43,0.06c0.66,0.82-0.2,2.04,0.01,3.07c0.13,0.63,0.66,1.11,1.23,1.41C32.28,65.17,36.56,62.83,39.49,64.66z"
		/>
	<path id="Dark_x5F_purple" class="st5" d="M38,57.93c1.15,2.07,1.62,4.34,1.5,6.54c-0.77-1.01-2.27-1.46-3.56-1.5
		c-1.2-0.04-2.4-0.09-3.6-0.13c-0.85-0.03-1.8-0.1-2.38-0.73c-0.68-0.73-0.55-1.87-0.44-2.86c0.1-0.99,0.03-2.19-0.83-2.69
		c-0.64-0.38-1.46-0.19-2.13,0.14c-0.67,0.33-1.28,0.78-2,0.95c-0.72,0.17-1.62-0.06-1.89-0.75c-0.12-0.31-0.09-0.66-0.02-0.99
		c0.37-1.66,1.7-2.83,2.92-4.08C30.44,51.08,35.48,53.37,38,57.93z"/>
	<path id="purple_00000141419953796324300060000004557687865901509303_" class="st6" d="M38.5,68.75c-0.01-0.01-0.02-0.01-0.04-0.02
		"/>
	<path id="purple" class="st7" d="M28.74,75.32c-0.49,0.08-0.98,0.13-1.47,0.14c-0.36-0.39-0.72-0.79-1.09-1.18
		c-0.17-0.18-0.34-0.37-0.57-0.48c-0.48-0.25-1.08-0.11-1.61-0.25c-0.93-0.23-1.44-1.21-2.31-1.6c-0.47-0.21-1.02-0.23-1.55-0.22
		c-0.58,0.01-1.15,0.05-1.72,0.12c-0.52-0.56-0.99-1.18-1.4-1.86c0.16,0.04,0.33,0.06,0.5,0.05c0.42-0.03,0.8-0.25,1.2-0.37
		c1.07-0.3,2.17,0.16,3.16,0.61c1.59,0.72,3.21,1.46,4.47,2.65C27.18,73.69,27.87,74.65,28.74,75.32z"/>
	<path id="yellow_00000005960529639676197090000010758889054389852351_" class="st8" d="M32.4,69.56
		c-9.59,5.95-16.01,5.97-16.01,5.97c-4.96-1.32-3.31-4.54-0.47-7.4c0.01,0.04,0.02,0.07,0.04,0.11c0.15,0.45,0.3,0.9,0.52,1.32
		c-5.81,8.2,13.7-2.3,13.7-2.3c15.21-9.21,12.21-10.45,7.49-10.01c-0.15-0.21-0.29-0.42-0.44-0.63c-0.12-0.18-0.25-0.36-0.4-0.51
		c3.15-0.58,5.49-0.08,5.49-0.08C49.65,60,32.4,69.56,32.4,69.56z"/>
	<path id="yellow_00000104681555869126198350000007205731461379639478_" class="st9" d="M16.46,69.56
		c-0.22-0.42-0.37-0.87-0.52-1.32c-0.01-0.04-0.02-0.07-0.04-0.11"/>
	<path id="yellow_00000044153341100392869280000002470385206371497659_" class="st9" d="M36.78,56.12c0.15,0.15,0.28,0.33,0.4,0.51
		c0.15,0.21,0.29,0.42,0.44,0.63"/>
</g>
<polygon class="st10" points="32.26,30.88 32.89,26.32 33.78,30.88 36.78,30.88 33.91,32.01 33.15,35.17 32.26,32.26 29.43,30.88 
	"/>
<polygon class="st11" points="61.86,73.54 62.3,70.61 62.91,73.54 64.98,73.54 62.99,74.26 62.47,76.29 61.86,74.42 59.91,73.54 "/>
<g>
</g>
<g>
</g>
<g>
</g>
<g>
</g>
<g>
</g>
<g>
</g>
</svg>
