<svg id="Layer_1" data-name="Layer 1" xmlns="http://www.w3.org/2000/svg" xmlns:xlink="http://www.w3.org/1999/xlink" viewBox="0 0 506.94 494.11"><defs><style>.cls-1{fill:url(#linear-gradient);}.cls-2{stroke:#30f4f9;stroke-miterlimit:10;fill:url(#linear-gradient-2);}</style><linearGradient id="linear-gradient" x1="1.22" y1="253.06" x2="508.16" y2="253.06" gradientUnits="userSpaceOnUse"><stop offset="0" stop-color="#ff5677"/><stop offset="1" stop-color="#4c3f91"/></linearGradient><linearGradient id="linear-gradient-2" x1="503.13" y1="247.18" x2="503.94" y2="247.18" gradientUnits="userSpaceOnUse"><stop offset="0" stop-color="#fff"/><stop offset="1"/></linearGradient></defs><path class="cls-1" d="M504.36,500.11l-80.84-9c-17.6-2-35.31-4-52.37-10.67-15.26-6-29.9-15.72-45.51-19.12-16.6-3.62-33.92,0-49.95-7.34-17.94-8.23-32.08-29.22-49.56-39.41-16.3-9.51-34.31-9-51.73-11.45s-35.92-9-47.56-28.51c-9.54-16-13-38.42-22.27-54.79C79.4,275.33,24.16,293.09,1.22,246c20-6.45,40.35-12.94,60.66-9.68,19.79,3.18,39.16,15.55,58.91,11.94,24.66-4.51,43.91-32.48,64.88-52.35,42.64-40.42,95.42-48.63,145.93-47.71,15.25.28,31,1.16,45.2-7.13,20.17-11.78,33.78-40,44.12-68.41,3.47-9.53,6.78-19.38,11.79-27.23,4.81-7.51,11-12.81,17.21-17.34C467.17,15.63,486,8.17,505.17,6.26c1-.11,2-.19,3-.26" transform="translate(-1.22 -6)"/><line class="cls-2" x1="503.94" y1="0.26" x2="503.13" y2="494.11"/></svg>