<?xml version="1.0" encoding="utf-8"?>
<!-- Generator: Adobe Illustrator 26.0.0, SVG Export Plug-In . SVG Version: 6.00 Build 0)  -->
<svg version="1.1" id="Layer_1" xmlns="http://www.w3.org/2000/svg" xmlns:xlink="http://www.w3.org/1999/xlink" x="0px" y="0px"
	 viewBox="0 0 1920 1080" style="enable-background:new 0 0 1920 1080;" xml:space="preserve">
<style type="text/css">
	.st0{fill:url(#SVGID_1_);}
</style>
<linearGradient id="SVGID_1_" gradientUnits="userSpaceOnUse" x1="491" y1="540" x2="1920" y2="540">
	<stop  offset="0" style="stop-color:#FF5677"/>
	<stop  offset="1" style="stop-color:#4C3F91"/>
</linearGradient>
<path class="st0" d="M1920,1080c-75.96-6.57-162.63-13.15-238.59-19.72c-49.61-4.3-99.53-8.65-147.64-23.31
	c-43-13.11-84.27-34.36-128.27-41.79c-46.79-7.91-95.61,0.03-140.79-16.05c-50.58-17.99-90.43-63.87-139.71-86.15
	c-45.95-20.78-96.71-19.68-145.83-25.02c-49.12-5.34-101.26-19.67-134.04-62.31c-26.9-34.99-36.69-83.97-62.8-119.75
	C711.38,588.69,555.66,627.51,491,524.63c56.28-14.1,113.74-28.29,171-21.17c55.77,6.95,110.37,34,166.05,26.1
	c69.51-9.86,123.76-70.99,182.89-114.44c120.19-88.33,268.97-106.29,411.36-104.27c42.99,0.6,87.36,2.54,127.41-15.57
	c56.87-25.75,95.22-87.46,124.37-149.54c9.78-20.82,19.11-42.37,33.25-59.51c13.54-16.42,30.86-28,48.51-37.89
	c48.62-27.29,101.81-43.6,155.72-47.78c2.81-0.22,5.64-0.41,8.45-0.56"/>
</svg>
