<?xml version="1.0" encoding="utf-8"?>
<!-- Generator: Adobe Illustrator 26.0.0, SVG Export Plug-In . SVG Version: 6.00 Build 0)  -->
<svg version="1.1" id="Layer_1" xmlns="http://www.w3.org/2000/svg" xmlns:xlink="http://www.w3.org/1999/xlink" x="0px" y="0px"
	 viewBox="0 0 500 500" style="enable-background:new 0 0 500 500;" xml:space="preserve">
<style type="text/css">
	.st0{fill:url(#SVGID_1_);}
	.st1{fill:url(#SVGID_00000116921160138758396440000012819452072875919006_);stroke:#30F4F9;stroke-miterlimit:10;}
</style>
<linearGradient id="SVGID_1_" gradientUnits="userSpaceOnUse" x1="1.2226" y1="253.0559" x2="508.162" y2="253.0559">
	<stop  offset="0" style="stop-color:#FF5677"/>
	<stop  offset="1" style="stop-color:#4C3F91"/>
</linearGradient>
<path class="st0" d="M504.36,500.11c-26.95-3.01-53.89-6.02-80.84-9.02c-17.6-1.97-35.31-3.96-52.38-10.67
	c-15.26-6-29.9-15.72-45.5-19.12c-16.6-3.62-33.92,0.01-49.95-7.34c-17.94-8.23-32.08-29.22-49.56-39.41
	c-16.3-9.51-34.31-9-51.73-11.45s-35.92-9-47.55-28.51c-9.54-16.01-13.02-38.42-22.28-54.79C79.4,275.33,24.16,293.09,1.22,246.02
	c19.96-6.45,40.35-12.94,60.66-9.68c19.78,3.18,39.15,15.55,58.91,11.94c24.66-4.51,43.91-32.48,64.88-52.36
	c42.64-40.41,95.42-48.63,145.93-47.71c15.25,0.28,30.99,1.16,45.2-7.13c20.17-11.78,33.78-40.02,44.12-68.42
	c3.47-9.52,6.78-19.38,11.79-27.23c4.8-7.51,10.95-12.81,17.21-17.34c17.25-12.49,36.12-19.95,55.24-21.86c1-0.1,2-0.19,3-0.26"/>
<linearGradient id="SVGID_00000142178468298766244090000013843105412524060548_" gradientUnits="userSpaceOnUse" x1="504.3567" y1="253.1842" x2="505.1651" y2="253.1842">
	<stop  offset="0" style="stop-color:#FFFFFF"/>
	<stop  offset="1" style="stop-color:#000000"/>
</linearGradient>
<line style="fill:url(#SVGID_00000142178468298766244090000013843105412524060548_);stroke:#30F4F9;stroke-miterlimit:10;" x1="505.17" y1="6.26" x2="504.36" y2="500.11"/>
</svg>
